<svg id="eSRziyIoqTN1" xmlns="http://www.w3.org/2000/svg" xmlns:xlink="http://www.w3.org/1999/xlink" viewBox="0 0 300 300" shape-rendering="geometricPrecision" text-rendering="geometricPrecision" style="background-color:transparent"><path d="M103.585793,109.87589c30.32558-11.370348,15.663717-11.282683,49.166022-2.508471c16.321812-1.608276,26.239716-13.525114,6.522023-29.098257-4.186819-.059273-13.001254-7.092602-27.593175-5.518635-16.112688-3.474898-27.31825,2.054629-31.105034,1.505082-33.585693,11.10899-25.93636,32.761026,3.010164,35.620281Z" transform="matrix(-.128499 0.100871-.115113-.146641 224.693268 73.209855)" fill="none" stroke="#57595b" stroke-width="2"/><path d="M103.585793,109.87589c30.32558-11.370348,15.663717-11.282683,49.166022-2.508471c16.321812-1.608276,26.239716-13.525114,6.522023-29.098257-4.186819-.059273-13.001254-7.092602-27.593175-5.518635-16.112688-3.474898-27.31825,2.054629-31.105034,1.505082-33.585693,11.10899-25.93636,32.761026,3.010164,35.620281Z" transform="matrix(-.135295 0.106206-.103442-.131774 47.505739 187.388015)" fill="none" stroke="#57595b" stroke-width="2"/><path d="M103.585793,109.87589c30.32558-11.370348,15.663717-11.282683,49.166022-2.508471c16.321812-1.608276,26.239716-13.525114,6.522023-29.098257-4.186819-.059273-13.001254-7.092602-27.593175-5.518635-16.112688-3.474898-27.31825,2.054629-31.105034,1.505082-33.585693,11.10899-25.93636,32.761026,3.010164,35.620281Z" transform="matrix(-.152031 0.119344-.134773-.171686 279.896972 130.53204)" fill="none" stroke="#57595b" stroke-width="2"/><path d="M103.585793,109.87589c30.32558-11.370348,15.663717-11.282683,49.166022-2.508471c16.321812-1.608276,26.239716-13.525114,6.522023-29.098257-4.186819-.059273-13.001254-7.092602-27.593175-5.518635-16.112688-3.474898-27.31825,2.054629-31.105034,1.505082-33.585693,11.10899-25.93636,32.761026,3.010164,35.620281Z" transform="matrix(-.161496 0.126774-.130536-.166289 63.167929 61.41907)" fill="none" stroke="#57595b" stroke-width="2"/><path d="M103.585793,109.87589c30.32558-11.370348,15.663717-11.282683,49.166022-2.508471c16.321812-1.608276,26.239716-13.525114,6.522023-29.098257-4.186819-.059273-13.001254-7.092602-27.593175-5.518635-16.112688-3.474898-27.31825,2.054629-31.105034,1.505082-33.585693,11.10899-25.93636,32.761026,3.010164,35.620281Z" transform="matrix(-.152194 0.08591-.059203-.104881 224.920546 195.044255)" fill="#57595b" stroke="#57595b" stroke-width="2"/><path d="M103.585793,109.87589c30.32558-11.370348,15.663717-11.282683,49.166022-2.508471c16.321812-1.608276,26.239716-13.525114,6.522023-29.098257-4.186819-.059273-13.001254-7.092602-27.593175-5.518635-16.112688-3.474898-27.31825,2.054629-31.105034,1.505082-33.585693,11.10899-25.93636,32.761026,3.010164,35.620281Z" transform="matrix(-.239025 0.128241-.111952-.208663 148.47474 198.453952)" fill="#57595b" stroke="#57595b" stroke-width="2"/><path d="M103.585793,109.87589c30.32558-11.370348,15.663717-11.282683,49.166022-2.508471c16.321812-1.608276,26.239716-13.525114,6.522023-29.098257-4.186819-.059273-13.001254-7.092602-27.593175-5.518635-16.112688-3.474898-27.31825,2.054629-31.105034,1.505082-33.585693,11.10899-25.93636,32.761026,3.010164,35.620281Z" transform="matrix(-.239025 0.128241-.111952-.208663 140.425491 77.393241)" fill="#57595b" stroke="#57595b" stroke-width="2"/><ellipse rx="15.063921" ry="11.884326" transform="matrix(.298706-.003514 0.004454 0.378624 152.64617 136.187652)" fill="#57595b" stroke-width="0"/><ellipse rx="4.766094" ry="6.271176" transform="matrix(.802326 0.270953-.238794 0.707099 56.303474 126.060848)" fill="none" stroke="#57595b"/><ellipse rx="4.766094" ry="6.271176" transform="matrix(.863748 0.291695-.160213 0.474412 260.110468 78.409292)" fill="none" stroke="#57595b"/></svg>
